<svg xmlns="http://www.w3.org/2000/svg" viewBox="0 0 120 120" fill="none">
  <!-- White background -->
  <rect width="120" height="120" rx="24" fill="white"/>

  <!-- FlaskConical (orange, scaled up, centered-left) -->
  <g transform="translate(18, 10) scale(3.5)" stroke="#f97316" stroke-width="1.5" stroke-linecap="round" stroke-linejoin="round">
    <path d="M10 2v7.527a2 2 0 0 1-.211.896L4.72 20.55a1 1 0 0 0 .9 1.45h12.76a1 1 0 0 0 .9-1.45l-5.069-10.127A2 2 0 0 1 14 9.527V2"/>
    <path d="M8.5 2h7"/>
    <path d="M7 16h10"/>
  </g>

  <!-- Bot icon (sky blue, small, bottom-right overlay) -->
  <g transform="translate(68, 68) scale(2.2)" stroke="#0ea5e9" stroke-width="1.5" stroke-linecap="round" stroke-linejoin="round">
    <path d="M12 8V4H8"/>
    <rect width="16" height="12" x="4" y="8" rx="2"/>
    <path d="M2 14h2"/>
    <path d="M20 14h2"/>
    <path d="M15 13v2"/>
    <path d="M9 13v2"/>
  </g>
</svg>
